<?xml version="1.0" encoding="UTF-8"?>
<svg id="Layer_1" data-name="Layer 1" xmlns="http://www.w3.org/2000/svg" viewBox="0 0 1417.32 566.93">
  <defs>
    <style>
      .cls-1 {
        fill: #29367d;
      }

      .cls-1, .cls-2 {
        fill-rule: evenodd;
      }

      .cls-2 {
        fill: #1b1918;
      }
    </style>
  </defs>
  <g>
    <path class="cls-1" d="M155.13,208.12c-25.25,5.16-51.42,13.11-78.5,23.86-1.01,1.97-2.01,4.03-2.98,6.07-16.94,32.42-28.35,63.18-34.2,92.23-1.23,6.82-3.98,10.27-8.22,10.27-3.19,0-5.94-1.57-8.39-4.76-1.97-2.44-2.93-5.07-2.93-7.91,0-3.4,1.49-10.57,4.55-21.41,3.05-10.83,6.2-20.27,9.52-28.49,1.28-3.05,5.07-12.01,11.54-26.78,1.61-3.58,3.19-7.26,4.75-11.18-2.57.96-6.07,2.4-10.61,4.37-1.92.87-3.76,1.31-5.29,1.31-3.76,0-5.72-2.89-5.72-8.66,0-3.76,1.61-6.63,4.75-8.65,2.45-1.53,6.82-3.41,13.03-5.64,6.59-2.4,11.79-4.5,15.5-6.07,2.45-4.28,7.17-13.06,13.98-26.38,1.19-2.45,5.25-9.48,12.28-20.93,19.83-33.52,32.82-57.33,38.75-71.57,5.5-12.84,8.96-20.1,10.27-21.84,2.48-3.19,5.46-4.76,8.87-4.76,5.76,0,8.65,2.84,8.65,8.48,0,12.8-17.47,47.44-52.47,103.89-5.77,9.26-9.97,17.35-12.63,24.2l9.13-2.57c25-7.21,47.76-13.54,68.37-18.92,14.03-25.9,31.24-54.66,51.65-86.2,3.49-5.64,5.59-9.13,6.2-10.44,2.93-5.29,6.03-7.91,9.31-7.91,2.8,0,5.11,1.17,6.91,3.49,1.43,1.97,2.18,4.06,2.18,6.38,0,4.46-2.36,10.7-7.12,18.92-1.05,2-6.07,9.83-14.9,23.45-15.59,24.25-25.38,40.47-29.36,48.67,3.5-.3,6.12-.53,7.86-.53,9.48,0,14.25,2.32,14.25,7.08,0,2.97-1.53,5.77-4.55,8.6-2.23,2.19-4.71,3.24-7.5,3.24h-6.99c-2.89,0-7.21.56-12.99,1.7-26.04,46.18-43.07,86.72-51.02,121.59-1.92,7.82-5.07,11.71-9.17,11.71-3.2,0-6.25-2.01-9.09-6.07-1.83-2.84-2.75-5.77-2.75-8.96,0-11.71,15.03-49.32,45.08-112.9Z"/>
    <path class="cls-2" d="M323.42,105.75c2.1,2.45,3.1,4.59,3.1,6.46,0,1.58-3.31,5.98-9.86,13.33-26.92,28.88-46.89,52.9-59.86,72.13-13.46,19.79-23.72,39.63-30.89,59.59-4.98,14.42-7.47,27.18-7.47,38.32,0,5.5,1.1,10.09,3.28,13.76,2.84,4.5,6.91,6.78,12.28,6.78,11.41,0,26.61-9.53,45.7-28.62,24.25-24.2,44.03-49.32,59.38-75.36,17.21-29.63,25.86-54.84,25.86-75.76,0-9.79-3.19-17.78-9.52-24.02-4.94-4.76-11.59-7.17-20.05-7.17l-11.93.57ZM313.82,107.89c-9,1.58-19.75,5.77-32.24,12.63-2.66,1.44-4.81,2.24-6.42,2.24-1.71,0-3.41-.92-5.16-2.58-1.67-1.83-2.54-4.06-2.54-6.64,0-2.92,1.53-5.5,4.55-7.68,7.5-5.42,16.73-9.92,27.74-13.59,13.32-4.5,25.78-6.77,37.45-6.77,14.76,0,26.78,5.07,36.13,15.2,8.43,9.08,12.63,20.27,12.63,33.64,0,21.98-8.96,48.71-26.79,80.13-19.3,33.6-42.81,63.87-70.64,90.65-23.47,22.59-43.6,33.9-60.51,33.9-9.92,0-17.92-4.5-24.07-13.53-4.63-7.08-6.96-15.3-6.96-24.65,0-22.85,7.95-49.37,23.86-79.56,21.33-40.5,52.3-78.34,92.98-113.38Z"/>
    <path class="cls-2" d="M440.91,200.78c4.72.27,8.18.39,10.49.39,25.33,0,49.01-8.87,70.99-26.65,9.62-7.82,17.44-16.9,23.47-27.17,3.8-6.39,5.68-13.15,5.68-20.32s-2.32-12.63-6.87-16.21c-4.59-3.62-11.49-5.41-20.61-5.41-8.31,0-16.7,1.52-25.17,4.76-3.32,1.22-8,3.23-14.07,6.07-4.33,9.82-11.27,23.93-20.93,42.55-9.7,18.61-17.35,32.55-22.98,41.99ZM418.49,240.23c-16.03,31.07-27.09,55.92-33.33,74.5-3.71,10.78-6.21,16.73-7.52,18-1.79,1.66-4.42,2.57-7.91,2.57-2.93,0-5.2-1-6.82-2.96-1.43-1.79-2.18-3.67-2.18-5.64,0-5.77,5.5-20.97,16.56-45.7,7.91-17.83,18.3-38.05,31.32-60.73-1.7-5.68-2.57-10-2.57-13.02,0-4.19,1.61-7.56,4.81-10,1.57-1.28,3.31-1.83,5.14-1.83,1.71,0,3.94.56,6.64,1.83,1.79-3.19,8.57-14.9,20.37-35.13,10.44-20.49,16.25-32.41,17.38-36-3.32,1.44-5.94,2.75-7.91,3.8-2.05,1.14-3.76,1.7-4.93,1.7-1.62,0-2.93-.87-4.06-2.57-.84-1.35-1.28-2.89-1.28-4.63,0-6.07,4.1-11.49,12.28-16.12,5.77-3.32,11.36-6.07,16.87-8.31,1.61-5.72,2.89-9.56,3.88-11.35,1.67-3.32,4.42-4.99,8.18-4.99,4.19,0,7.77,2.32,10.84,6.96,5.76-1.67,11.22-2.97,16.42-3.8,5.2-.87,10.05-1.31,14.69-1.31,14.24,0,24.94,4.06,32.25,12.14,6.95,7.69,10.48,17.09,10.48,28.1,0,18.01-7.04,35-21.11,51.03-13.23,14.99-30.79,26.43-52.86,34.38-16.91,6.12-33.55,9.22-49.89,9.22-2.8,0-7.12-.21-12.88-.57,2,7.43,4.63,14.9,7.91,22.41,5.72,12.06,13.94,29.4,24.59,52.08,3.05,5.95,8.08,14.51,15.08,25.65,1.83,2.98,2.75,5.64,2.75,8.09,0,2.32-1.36,4.5-4.07,6.6-2.8,1.92-5.2,2.93-7.11,2.93-3.11,0-6.34-3.23-9.79-9.74-1.71-3.11-3.8-6.91-6.39-11.41-9.43-15.56-21.36-40.89-35.82-76.16Z"/>
    <path class="cls-2" d="M656.34,105.75c2.14,2.45,3.14,4.59,3.14,6.46,0,1.58-3.32,5.98-9.92,13.33-26.91,28.88-46.87,52.9-59.85,72.13-13.45,19.79-23.72,39.63-30.85,59.59-5.02,14.42-7.52,27.18-7.52,38.32,0,5.5,1.14,10.09,3.32,13.76,2.84,4.5,6.9,6.78,12.28,6.78,11.4,0,26.61-9.53,45.7-28.62,24.24-24.2,43.99-49.32,59.32-75.36,17.21-29.63,25.87-54.84,25.87-75.76,0-9.79-3.19-17.78-9.53-24.02-4.93-4.76-11.58-7.17-20.01-7.17l-11.97.57ZM646.77,107.89c-8.99,1.58-19.79,5.77-32.25,12.63-2.71,1.44-4.8,2.24-6.46,2.24s-3.36-.92-5.11-2.58c-1.7-1.83-2.57-4.06-2.57-6.64,0-2.92,1.58-5.5,4.59-7.68,7.52-5.42,16.69-9.92,27.75-13.59,13.32-4.5,25.77-6.77,37.39-6.77,14.81,0,26.83,5.07,36.14,15.2,8.48,9.08,12.67,20.27,12.67,33.64,0,21.98-8.96,48.71-26.83,80.13-19.27,33.6-42.81,63.87-70.6,90.65-23.47,22.59-43.65,33.9-60.55,33.9-9.88,0-17.92-4.5-24.04-13.53-4.63-7.08-6.95-15.3-6.95-24.65,0-22.85,7.95-49.37,23.86-79.56,21.27-40.5,52.25-78.34,92.97-113.38Z"/>
    <path class="cls-1" d="M710.21,305.59c3.28-1.01,5.73-1.74,7.3-2.23,28.31-8.78,48.57-13.15,60.81-13.15,9.17,0,13.77,3.46,13.77,10.31,0,2.71-1.05,5.07-3.15,7.21-2.05,2.05-4.36,3.14-6.95,3.14-1.26,0-3.01-.22-5.32-.57-1.92-.39-3.55-.57-4.76-.57-7.17,0-16.64,1.62-28.4,4.94-4.28,1.31-12.54,4.75-24.73,10.22-8.22,3.67-14.9,5.5-20.19,5.5-3.8,0-6.86-1.74-9.31-5.33-2.32-3.32-3.49-6.77-3.49-10.44,0-4.54,2.48-12.15,7.5-22.94,15.35-33.25,31.72-63.05,49.25-89.48,25.12-37.88,44.6-65.66,58.41-83.36,3.85-4.85,7.61-9.65,11.41-14.55,5.94-8.09,11.1-12.06,15.47-12.06,2.18,0,4.15.87,5.8,2.54,1.58,1.7,2.4,3.53,2.4,5.32,0,2.71-2.05,6.81-6.24,12.45-.84,1.14-6,7.78-15.26,20.05-17.38,22.85-30.37,40.33-38.88,52.48-8.48,12.06-17.57,26.08-27.27,41.99-19,31.19-31.67,57.37-38.18,78.5Z"/>
    <path class="cls-2" d="M939.88,105.75c2.15,2.45,3.15,4.59,3.15,6.46,0,1.58-3.32,5.98-9.92,13.33-26.91,28.88-46.89,52.9-59.86,72.13-13.46,19.79-23.72,39.63-30.84,59.59-5.03,14.42-7.52,27.18-7.52,38.32,0,5.5,1.13,10.09,3.31,13.76,2.8,4.5,6.91,6.78,12.28,6.78,11.41,0,26.61-9.53,45.7-28.62,24.2-24.2,44-49.32,59.33-75.36,17.21-29.63,25.86-54.84,25.86-75.76,0-9.79-3.19-17.78-9.52-24.02-4.94-4.76-11.58-7.17-20.01-7.17l-11.98.57ZM930.32,107.89c-9,1.58-19.8,5.77-32.24,12.63-2.71,1.44-4.81,2.24-6.46,2.24s-3.37-.92-5.11-2.58c-1.7-1.83-2.58-4.06-2.58-6.64,0-2.92,1.58-5.5,4.6-7.68,7.5-5.42,16.69-9.92,27.69-13.59,13.37-4.5,25.82-6.77,37.45-6.77,14.81,0,26.82,5.07,36.13,15.2,8.48,9.08,12.67,20.27,12.67,33.64,0,21.98-8.96,48.71-26.82,80.13-19.27,33.6-42.81,63.87-70.61,90.65-23.45,22.59-43.64,33.9-60.55,33.9-9.88,0-17.91-4.5-24.02-13.53-4.63-7.08-6.95-15.3-6.95-24.65,0-22.85,7.94-49.37,23.85-79.56,21.28-40.5,52.25-78.34,92.98-113.38Z"/>
    <path class="cls-2" d="M1066.58,292.57c-8.39,5.82-15.07,10.22-20.13,13.11-11.62,6.69-21.72,10.04-30.23,10.04-10.01,0-18.26-4.8-24.82-14.46-4.68-6.99-7.04-14.98-7.04-24.02,0-25.21,11.01-54.52,33.03-88.03,20.4-30.94,44.08-57.59,71-79.99,22.06-18.35,40.94-27.48,56.71-27.48,7.95,0,14.46,3.36,19.48,10.09,3.8,5.11,5.68,11.18,5.68,18.13,0,21.23-10.36,43.34-31.24,66.1-15.9,17.48-27.96,26.26-36.17,26.26-1.8,0-3.67-.75-5.51-2.18-1.91-1.71-2.92-3.72-2.92-6.04,0-3.05,2.66-6.81,8.08-11.18,13.9-11.1,25.17-22.4,33.87-33.99,13.59-18,20.4-32.16,20.4-42.64,0-2.84-1.05-5.07-3.14-6.78-1.92-1.57-4.33-2.39-7.12-2.39-6.51,0-15.2,3.84-26.13,11.4-22.76,15.99-45.26,38.45-67.41,67.24-14.34,18.75-26.31,38-35.82,57.97-8.31,17.48-12.5,31.76-12.5,42.9,0,4.37,1.35,8.57,4.19,12.46,3.8,5.23,8.75,7.91,14.82,7.91,8.74,0,19.44-4.76,32.16-14.38,15.9-11.44,27.21-20.7,34.11-27.65,5.73-5.91,10.05-8.82,13.02-8.82,2.06,0,3.76.83,5.12,2.36,1.7,2.14,2.57,4.72,2.57,7.77,0,3.37-2.06,7.91-6.25,13.54-4.27,5.64-10.92,16.25-19.79,31.9-10.27,17.47-19.8,36.43-28.44,56.87-7.69,17.96-12.4,30.15-13.94,36.48-1.31,5.38-2.89,9.26-4.59,11.58-1.83,2.45-4.63,3.64-8.43,3.71-3.23-.08-5.64-1.13-7.35-3.31-1.43-1.97-2.18-4.33-2.18-7.04,0-10.4,6.21-28.36,18.52-53.92,2.01-3.97,8.31-15.77,18.92-35.16,2.09-3.94,5.28-10.1,9.47-18.35Z"/>
    <path class="cls-2" d="M1261.48,86.96c1.97,0,3.89,1.1,5.73,3.15,1.58,1.83,2.36,3.79,2.36,6.03,0,3.05-1.62,7.25-4.93,12.49-1.58,2.57-7.56,11.01-17.96,25.47-48.68,67.02-79.9,127.49-93.85,181.4-1.57,8.69-4.89,13.02-9.91,13.02-2.67,0-5.07-1.31-7.12-3.89-1.97-2.32-2.93-4.93-2.93-7.91,0-6.07,2.93-17.38,8.82-33.86,13.38-38.18,37.49-83.75,72.17-136.83,14.16-21.77,25.74-38.11,34.61-48.98,5.77-6.69,10.1-10.1,13.02-10.1Z"/>
    <path class="cls-2" d="M1372.93,85.09c8.21,0,14.51,2.98,18.91,8.82,3.55,4.63,5.34,10.27,5.34,16.87,0,11.89-3.97,25.43-11.92,40.54-6.95,13.11-15.56,24.86-25.96,35.26-6.86,6.72-12.22,10.09-16.12,10.09-2.54,0-4.93-1.31-7.12-3.89-1.57-1.79-2.36-3.88-2.36-6.2,0-4.33,3.67-9.18,11.14-14.73,10.49-7.82,18.83-16.39,25.09-25.65,9.13-13.46,13.71-24.85,13.71-34.12,0-3.79-.83-6.63-2.49-8.47-1.61-1.8-4.06-2.76-7.38-2.76-6.72,0-16.3,4.9-28.61,14.69-14.03,11.01-28.88,26.04-44.53,45-19.92,24.12-35.07,47.85-45.43,71.18-10.79,24.25-16.17,44.91-16.17,62.04,0,8.16,2.36,15.15,7.12,20.93,5.29,6.46,11.67,9.7,19.23,9.7,13.15,0,29.75-10.31,49.72-30.94,6.03-6.2,13.29-15.24,21.8-27.17,5.64-7.61,9.18-13.02,10.84-16.22,1.79-3.53,3.94-5.32,6.39-5.32,2.66,0,3.97,1.35,3.97,3.88,0,5.51-6.81,17.87-20.53,37.1-11.32,15.99-23.86,29.09-37.52,39.24-15.42,11.4-29.93,17.08-43.61,17.08s-25.33-6.42-33.16-19.27c-5.02-8.12-7.52-17.51-7.52-28.04,0-26.44,12.46-59.73,37.45-99.92,21.27-34.26,43.69-61.77,67.29-82.71,20.4-17.95,37.96-27,52.47-27Z"/>
  </g>
  <path class="cls-2" d="M169.33,442.43v16.55h14.99v-16.55c0-2.32.3-4.12.92-5.29.65-1.19,1.48-1.79,2.48-1.79s1.88.6,2.54,1.74c.66,1.17,1.01,2.98,1.01,5.34v45.43c0,2.4-.35,4.15-1.01,5.33-.66,1.17-1.49,1.79-2.54,1.79s-1.88-.62-2.48-1.79c-.62-1.19-.92-2.98-.92-5.33v-19.39h-14.99v19.39c0,2.4-.31,4.15-.96,5.33-.66,1.17-1.53,1.79-2.54,1.79s-1.88-.62-2.48-1.79c-.66-1.19-.96-2.98-.96-5.33v-45.43c0-2.36.3-4.12.92-5.29.6-1.19,1.49-1.79,2.53-1.79s1.88.6,2.54,1.74c.65,1.17.96,2.98.96,5.34ZM156.14,475.81c0,1.83-.26,3.8-.83,5.94-.53,2.15-1.35,4.24-2.54,6.3-1.13,2.05-2.62,3.71-4.41,5.02-1.79,1.26-3.89,1.92-6.25,1.92-1.79,0-3.44-.31-4.93-.87-1.49-.57-2.8-1.49-4.03-2.72-1.22-1.17-2.32-2.8-3.31-4.8-.92-1.79-1.71-3.8-2.32-6.07-.66-2.23-1.14-4.63-1.44-7.17-.31-2.53-.48-5.25-.48-8.12,0-4.63.39-8.79,1.22-12.46.78-3.67,1.92-6.81,3.41-9.43,1.52-2.58,3.28-4.6,5.28-5.95,2.01-1.35,4.15-2.05,6.43-2.05,2.75,0,5.23.96,7.38,2.8,2.18,1.88,3.84,4.19,4.98,6.9,1.14,2.75,1.74,5.32,1.74,7.77,0,1.35-.3,2.49-.87,3.55-.53,1.01-1.22,1.52-2.01,1.52-.87,0-1.57-.35-2-1.04-.44-.75-.92-1.97-1.49-3.68-.87-2.87-1.97-5.02-3.19-6.42-1.23-1.4-2.71-2.14-4.51-2.14-2.87,0-5.11,1.83-6.81,5.46-1.7,3.67-2.53,8.87-2.53,15.56,0,4.5.39,8.21,1.13,11.23.75,2.96,1.79,5.2,3.14,6.63,1.4,1.49,2.98,2.24,4.85,2.24s3.67-.84,5.02-2.49c1.4-1.7,2.45-4.1,3.14-7.34.27-1.53.66-2.8,1.1-3.76.44-.92,1.14-1.44,2.1-1.44.83,0,1.52.53,2.14,1.49.57.96.87,2.18.87,3.62ZM120.49,446.01h-7.56v41.85c0,2.4-.35,4.19-.96,5.38-.66,1.17-1.49,1.74-2.49,1.74s-1.88-.62-2.53-1.79c-.66-1.19-.96-2.93-.96-5.33v-41.85h-7.56c-1.22,0-2.1-.44-2.66-1.31-.57-.92-.87-2.06-.87-3.55s.3-2.66.92-3.53c.6-.87,1.48-1.31,2.62-1.31h22.07c1.17,0,2.09.48,2.66,1.35.57.92.87,2.05.87,3.49s-.3,2.63-.87,3.55c-.62.87-1.49,1.31-2.66,1.31ZM76.23,471.43h10.22l-5.16-23.77-5.07,23.77ZM89.95,487.47l-1.66-7.26h-13.89l-1.67,7.39c-.62,2.87-1.17,4.84-1.61,5.85-.44,1.01-1.19,1.53-2.24,1.53-.87,0-1.61-.53-2.32-1.62-.65-1.08-1.01-2.32-1.01-3.67,0-.78.09-1.61.27-2.45.13-.83.39-1.96.74-3.49l8.78-37.45c.22-1.05.53-2.36.88-3.85.35-1.52.74-2.75,1.13-3.75.39-1.01.92-1.8,1.58-2.4.65-.66,1.44-.96,2.4-.96s1.74.3,2.39.96c.66.6,1.19,1.4,1.58,2.36.39.96.74,2,1.01,3.14.26,1.1.62,2.57,1.01,4.45l8.96,37.19c.69,2.83,1.04,4.89,1.04,6.15,0,1.35-.3,2.58-.96,3.71-.65,1.1-1.48,1.67-2.39,1.67-.57,0-1.01-.18-1.4-.53-.4-.3-.75-.74-1.01-1.31-.27-.57-.53-1.44-.84-2.58-.3-1.17-.56-2.23-.78-3.1ZM47.39,484.89l-5.55-34.55-5.59,34.55c-.44,2.67-.78,4.55-1.04,5.68-.27,1.14-.7,2.15-1.35,3.06-.62.87-1.49,1.35-2.54,1.35-.83,0-1.58-.27-2.1-.83-.56-.53-1-1.28-1.35-2.28-.35-.95-.6-2.14-.83-3.49-.21-1.35-.44-2.58-.62-3.76l-5.67-38.8c-.36-2.27-.53-3.97-.53-5.16,0-1.49.3-2.75.96-3.8.6-1,1.35-1.52,2.27-1.52,1.26,0,2.14.69,2.57,2.05s.79,3.37,1.14,5.95l4.5,33.68,5.02-31.5c.36-2.45.7-4.28,1.01-5.5.27-1.28.79-2.36,1.44-3.28.66-.92,1.58-1.4,2.71-1.4,1.19,0,2.1.48,2.75,1.44.62.96,1.1,2,1.32,3.14.26,1.13.6,2.98,1,5.59l5.08,31.5,4.5-33.68c.22-1.76.44-3.15.62-4.12.21-1,.53-1.91,1-2.71.48-.78,1.19-1.17,2.1-1.17s1.66.53,2.27,1.52c.66,1.01.96,2.28.96,3.8,0,1.05-.18,2.8-.53,5.16l-5.68,38.8c-.39,2.62-.74,4.54-.96,5.77-.26,1.22-.69,2.27-1.31,3.19-.6.92-1.49,1.4-2.62,1.4-1.05,0-1.92-.44-2.54-1.35-.65-.87-1.08-1.88-1.35-3.02-.26-1.1-.57-3.01-1.05-5.73Z"/>
  <path class="cls-1" d="M230.58,477.82h-7.38c-1.13,0-2-.44-2.57-1.32-.57-.87-.87-2-.87-3.4s.3-2.58.87-3.46c.53-.87,1.4-1.35,2.57-1.35h7.38c1.14,0,2.01.48,2.58,1.35.57.87.83,2.01.83,3.46s-.26,2.53-.83,3.4c-.57.88-1.44,1.32-2.58,1.32Z"/>
  <path class="cls-2" d="M403.64,476.72c0,3.46-.53,6.6-1.58,9.4-1.04,2.75-2.62,4.93-4.68,6.51-2.05,1.57-4.5,2.36-7.34,2.36-3.37,0-6.16-1.1-8.34-3.23-1.58-1.53-2.84-3.59-3.8-6.16-.96-2.58-1.44-5.11-1.44-7.56,0-1.4.31-2.62.87-3.62.57-1.01,1.32-1.49,2.24-1.49.74,0,1.35.35,1.83,1.19.53.74.96,1.91,1.31,3.49.44,1.83.92,3.37,1.4,4.59.53,1.23,1.22,2.27,2.14,3.06.92.78,2.15,1.17,3.64,1.17,2.05,0,3.71-.78,5.02-2.4,1.26-1.61,1.92-3.62,1.92-6.03,0-1.92-.36-3.49-1.05-4.68-.7-1.17-1.58-2.09-2.71-2.75-1.1-.62-2.54-1.26-4.37-2-2.45-.96-4.54-2.1-6.21-3.37-1.66-1.31-2.96-3.11-3.93-5.33-.96-2.23-1.44-5.02-1.44-8.39,0-3.14.48-5.98,1.53-8.43,1-2.44,2.53-4.36,4.45-5.68,1.97-1.35,4.24-2,6.86-2,2.1,0,3.94.44,5.47,1.31,1.52.92,2.8,2.06,3.84,3.53,1.01,1.44,1.76,2.98,2.19,4.55.48,1.61.69,3.19.69,4.71,0,1.36-.26,2.63-.87,3.76-.57,1.1-1.31,1.67-2.18,1.67-.79,0-1.4-.35-1.79-1.01-.44-.66-.88-1.74-1.35-3.28-.62-2.18-1.36-3.89-2.24-5.11-.87-1.22-2.27-1.83-4.24-1.83-1.79,0-3.23.66-4.32,2.01-1.1,1.31-1.67,2.87-1.67,4.75,0,1.19.22,2.15.57,3.02.39.83.92,1.53,1.58,2.14.65.62,1.31,1.1,1.96,1.44.66.31,1.8.83,3.32,1.49,1.92.74,3.67,1.58,5.25,2.54,1.58.87,2.89,2,4.02,3.31,1.1,1.32,1.92,2.98,2.54,4.99s.92,4.45.92,7.38ZM368.3,445.35h-15.65v14.16h14.43c1.04,0,1.83.44,2.35,1.22.53.79.79,1.83.79,3.15s-.27,2.35-.79,3.19c-.51.83-1.31,1.22-2.35,1.22h-14.43v16.47h16.17c1.08,0,1.92.39,2.48,1.26.53.83.84,1.97.84,3.41,0,1.35-.31,2.44-.84,3.28-.56.87-1.4,1.31-2.48,1.31h-18.83c-1.53,0-2.62-.57-3.28-1.71-.65-1.13-1.01-2.96-1.01-5.46v-43.38c0-1.66.18-3.05.48-4.1.27-1.05.75-1.83,1.35-2.32.66-.48,1.44-.74,2.45-.74h18.31c1.1,0,1.92.44,2.45,1.26.56.83.83,1.92.83,3.23s-.27,2.49-.83,3.32c-.53.78-1.35,1.22-2.45,1.22ZM323.6,442.43v41.98h14.07c1.13,0,2,.48,2.57,1.4.62.92.92,2.06.92,3.46s-.3,2.58-.87,3.46c-.62.87-1.49,1.31-2.62,1.31h-16.74c-1.52,0-2.57-.57-3.23-1.71-.69-1.13-1-2.96-1-5.46v-44.42c0-2.32.3-4.12.92-5.29.65-1.19,1.48-1.79,2.48-1.79s1.88.6,2.54,1.74c.65,1.17.96,2.98.96,5.34ZM290.62,471.43h10.22l-5.16-23.77-5.07,23.77ZM304.33,487.47l-1.61-7.26h-13.94l-1.62,7.39c-.66,2.87-1.17,4.84-1.66,5.85-.45,1.01-1.19,1.53-2.19,1.53-.87,0-1.66-.53-2.32-1.62-.69-1.08-1.01-2.32-1.01-3.67,0-.78.04-1.61.22-2.45.18-.83.39-1.96.78-3.49l8.74-37.45c.27-1.05.57-2.36.92-3.85.36-1.52.7-2.75,1.1-3.75.44-1.01.92-1.8,1.58-2.4.65-.66,1.44-.96,2.4-.96s1.79.3,2.39.96c.66.6,1.19,1.4,1.58,2.36.39.96.74,2,1.01,3.14.26,1.1.62,2.57,1.05,4.45l8.95,37.19c.7,2.83,1.05,4.89,1.05,6.15,0,1.35-.35,2.58-1.01,3.71-.65,1.1-1.44,1.67-2.39,1.67-.53,0-1.01-.18-1.41-.53-.39-.3-.69-.74-.95-1.31-.27-.57-.57-1.44-.88-2.58-.3-1.17-.56-2.23-.78-3.1ZM276.55,476.72c0,3.46-.53,6.6-1.62,9.4-1.05,2.75-2.62,4.93-4.68,6.51-2.05,1.57-4.5,2.36-7.29,2.36-3.41,0-6.21-1.1-8.39-3.23-1.53-1.53-2.8-3.59-3.8-6.16-.96-2.58-1.44-5.11-1.44-7.56,0-1.4.31-2.62.87-3.62.57-1.01,1.31-1.49,2.24-1.49.74,0,1.35.35,1.83,1.19.51.74.96,1.91,1.31,3.49.44,1.83.92,3.37,1.4,4.59.53,1.23,1.22,2.27,2.14,3.06.96.78,2.15,1.17,3.62,1.17,2.06,0,3.76-.78,5.03-2.4,1.26-1.61,1.91-3.62,1.91-6.03,0-1.92-.35-3.49-1.04-4.68-.66-1.17-1.58-2.09-2.67-2.75-1.08-.62-2.57-1.26-4.41-2-2.45-.96-4.5-2.1-6.16-3.37-1.66-1.31-2.96-3.11-3.97-5.33-.96-2.23-1.44-5.02-1.44-8.39,0-3.14.53-5.98,1.52-8.43,1.05-2.44,2.54-4.36,4.46-5.68,1.97-1.35,4.24-2,6.9-2,2.1,0,3.89.44,5.41,1.31,1.53.92,2.84,2.06,3.85,3.53,1.01,1.44,1.74,2.98,2.23,4.55.45,1.61.7,3.19.7,4.71,0,1.36-.3,2.63-.87,3.76-.62,1.1-1.35,1.67-2.18,1.67s-1.41-.35-1.85-1.01c-.39-.66-.87-1.74-1.31-3.28-.65-2.18-1.4-3.89-2.27-5.11s-2.27-1.83-4.19-1.83c-1.79,0-3.23.66-4.33,2.01-1.13,1.31-1.66,2.87-1.66,4.75,0,1.19.18,2.15.57,3.02.35.83.87,1.53,1.52,2.14.66.62,1.32,1.1,1.97,1.44.7.31,1.79.83,3.32,1.49,1.97.74,3.71,1.58,5.25,2.54,1.57.87,2.93,2,4.02,3.31,1.1,1.32,1.97,2.98,2.58,4.99.6,2.01.92,4.45.92,7.38Z"/>
  <path class="cls-1" d="M429.46,477.82h-7.39c-1.13,0-1.96-.44-2.57-1.32-.57-.87-.87-2-.87-3.4s.3-2.58.87-3.46c.57-.87,1.4-1.35,2.57-1.35h7.39c1.13,0,2,.48,2.57,1.35.57.87.87,2.01.87,3.46s-.3,2.53-.87,3.4c-.57.88-1.4,1.32-2.57,1.32Z"/>
  <path class="cls-2" d="M606.1,445.09h-6.43v15.9h6.25c1.66,0,3.05-.27,4.19-.75s2.01-1.31,2.57-2.48c.62-1.19.92-2.75.92-4.81,0-1.62-.21-3.02-.74-4.24-.48-1.22-1.14-2.14-2.01-2.75-.78-.57-2.39-.87-4.75-.87ZM602.12,469.34h-2.45v18.52c0,2.45-.3,4.24-.96,5.38-.6,1.17-1.43,1.74-2.48,1.74s-1.97-.62-2.58-1.83c-.56-1.19-.87-2.98-.87-5.29v-44.39c0-2.48.31-4.32,1.01-5.46.66-1.14,1.74-1.7,3.23-1.7h11.27c1.58,0,2.89.12,4.02.35,1.1.21,2.1.69,2.97,1.35,1.1.78,2.01,1.88,2.84,3.28.83,1.4,1.49,3.05,1.88,4.93.44,1.88.65,3.85.65,5.99,0,4.27-.69,7.73-2.14,10.3-1.49,2.54-3.62,4.37-6.55,5.47,1.22,1.08,2.4,2.71,3.5,4.84,1.13,2.19,2.14,4.46,3.01,6.87.87,2.44,1.58,4.63,2.06,6.59.48,1.92.74,3.28.74,4.03s-.13,1.49-.44,2.23c-.3.78-.7,1.35-1.17,1.79-.48.44-1.1.66-1.76.66-.74,0-1.4-.31-1.96-.92-.53-.66-.96-1.4-1.36-2.36-.35-.92-.87-2.32-1.52-4.15l-2.8-7.78c-1.01-2.87-1.88-5.02-2.67-6.51-.78-1.52-1.57-2.53-2.39-3.1-.79-.53-1.85-.83-3.06-.83ZM578.14,487.86v-45.43c0-2.36.3-4.12.92-5.29.65-1.19,1.48-1.79,2.48-1.79s1.88.6,2.54,1.74c.65,1.17.96,2.98.96,5.34v45.43c0,2.4-.31,4.15-.96,5.33-.66,1.17-1.49,1.79-2.54,1.79s-1.79-.62-2.44-1.79c-.66-1.19-.96-2.98-.96-5.33ZM551.62,471.43h10.22l-5.16-23.77-5.07,23.77ZM565.33,487.47l-1.61-7.26h-13.95l-1.61,7.39c-.66,2.87-1.19,4.84-1.67,5.85-.44,1.01-1.17,1.53-2.23,1.53-.83,0-1.61-.53-2.27-1.62-.69-1.08-1.01-2.32-1.01-3.67,0-.78.04-1.61.22-2.45.17-.83.39-1.96.78-3.49l8.74-37.45c.27-1.05.57-2.36.92-3.85.36-1.52.7-2.75,1.1-3.75.39-1.01.92-1.8,1.58-2.4.65-.66,1.44-.96,2.4-.96s1.79.3,2.39.96c.66.6,1.19,1.4,1.58,2.36.39.96.74,2,1.01,3.14.26,1.1.62,2.57,1.05,4.45l8.95,37.19c.7,2.83,1.05,4.89,1.05,6.15,0,1.35-.35,2.58-1.01,3.71-.65,1.1-1.49,1.67-2.4,1.67-.51,0-1-.18-1.4-.53-.39-.3-.69-.74-.96-1.31-.26-.57-.56-1.44-.87-2.58-.3-1.17-.56-2.23-.78-3.1ZM527.33,445.09h-4.68v17.65h4.68c1.61,0,3.01-.3,4.1-.87,1.08-.57,1.92-1.49,2.48-2.84.62-1.26.88-3.02.88-5.16,0-2.54-.44-4.59-1.32-6.21-1-1.7-3.05-2.57-6.15-2.57ZM528.98,471.52h-6.33v16.34c0,2.32-.31,4.1-.96,5.29-.66,1.22-1.49,1.83-2.49,1.83s-1.88-.62-2.54-1.79c-.6-1.19-.95-2.98-.95-5.25v-44.48c0-2.53.35-4.41,1.04-5.5.7-1.1,1.83-1.66,3.37-1.66h8.87c2.66,0,4.68.35,6.12,1.04,1.4.66,2.57,1.76,3.62,3.24,1.01,1.57,1.79,3.4,2.32,5.59.53,2.23.78,4.71.78,7.46,0,5.86-1.08,10.31-3.23,13.33-2.14,3.05-5.32,4.54-9.61,4.54ZM506.36,445.35h-15.6v14.16h14.37c1.05,0,1.83.44,2.36,1.22.53.79.78,1.83.78,3.15s-.26,2.35-.74,3.19c-.53.83-1.31,1.22-2.4,1.22h-14.37v16.47h16.16c1.1,0,1.88.39,2.45,1.26.57.83.83,1.97.83,3.41,0,1.35-.26,2.44-.83,3.28-.57.87-1.35,1.31-2.45,1.31h-18.87c-1.49,0-2.58-.57-3.23-1.71-.66-1.13-1.01-2.96-1.01-5.46v-43.38c0-1.66.13-3.05.44-4.1.3-1.05.74-1.83,1.4-2.32.62-.48,1.44-.74,2.4-.74h18.31c1.13,0,1.91.44,2.48,1.26.53.83.79,1.92.79,3.23s-.27,2.49-.79,3.32c-.57.78-1.35,1.22-2.48,1.22ZM462.7,445.09h-6.42v15.9h6.21c1.66,0,3.05-.27,4.24-.75,1.08-.48,1.96-1.31,2.57-2.48.62-1.19.92-2.75.92-4.81,0-1.62-.26-3.02-.74-4.24s-1.14-2.14-2.01-2.75c-.78-.57-2.4-.87-4.76-.87ZM458.73,469.34h-2.45v18.52c0,2.45-.3,4.24-.96,5.38-.62,1.17-1.49,1.74-2.49,1.74-1.08,0-1.96-.62-2.57-1.83-.62-1.19-.92-2.98-.92-5.29v-44.39c0-2.48.35-4.32,1.01-5.46.69-1.14,1.74-1.7,3.23-1.7h11.32c1.52,0,2.87.12,3.97.35,1.14.21,2.1.69,3.02,1.35,1.04.78,2,1.88,2.83,3.28.84,1.4,1.44,3.05,1.88,4.93.45,1.88.66,3.85.66,5.99,0,4.27-.74,7.73-2.18,10.3-1.44,2.54-3.62,4.37-6.55,5.47,1.22,1.08,2.4,2.71,3.53,4.84,1.14,2.19,2.15,4.46,3.02,6.87.87,2.44,1.52,4.63,2.05,6.59.48,1.92.75,3.28.75,4.03s-.18,1.49-.44,2.23c-.31.78-.7,1.35-1.19,1.79-.53.44-1.08.66-1.74.66-.78,0-1.44-.31-1.97-.92-.53-.66-.96-1.4-1.35-2.36-.39-.92-.92-2.32-1.58-4.15l-2.75-7.78c-1-2.87-1.91-5.02-2.66-6.51-.83-1.52-1.61-2.53-2.4-3.1-.83-.53-1.83-.83-3.05-.83Z"/>
  <path class="cls-1" d="M647.13,477.82h-7.39c-1.13,0-1.96-.44-2.57-1.32-.57-.87-.87-2-.87-3.4s.3-2.58.87-3.46c.57-.87,1.4-1.35,2.57-1.35h7.39c1.13,0,2,.48,2.57,1.35.57.87.87,2.01.87,3.46s-.3,2.53-.87,3.4c-.57.88-1.4,1.32-2.57,1.32Z"/>
  <path class="cls-2" d="M869.98,445.35h-15.64v14.16h14.37c1.1,0,1.88.44,2.36,1.22.57.79.78,1.83.78,3.15s-.21,2.35-.74,3.19c-.53.83-1.31,1.22-2.4,1.22h-14.37v16.47h16.16c1.1,0,1.92.39,2.45,1.26.57.83.83,1.97.83,3.41,0,1.35-.26,2.44-.83,3.28-.53.87-1.35,1.31-2.45,1.31h-18.87c-1.49,0-2.58-.57-3.23-1.71-.66-1.13-1.01-2.96-1.01-5.46v-43.38c0-1.66.17-3.05.44-4.1.3-1.05.78-1.83,1.4-2.32.62-.48,1.44-.74,2.4-.74h18.34c1.1,0,1.92.44,2.45,1.26.53.83.78,1.92.78,3.23s-.26,2.49-.78,3.32c-.53.78-1.35,1.22-2.45,1.22ZM841.19,475.81c0,1.83-.26,3.8-.83,5.94-.53,2.15-1.35,4.24-2.54,6.3-1.13,2.05-2.62,3.71-4.41,5.02-1.79,1.26-3.89,1.92-6.25,1.92-1.79,0-3.44-.31-4.93-.87-1.49-.57-2.84-1.49-4.03-2.72-1.22-1.17-2.32-2.8-3.31-4.8-.92-1.79-1.71-3.8-2.32-6.07-.66-2.23-1.14-4.63-1.44-7.17-.31-2.53-.48-5.25-.48-8.12,0-4.63.39-8.79,1.17-12.46.83-3.67,1.97-6.81,3.46-9.43,1.52-2.58,3.28-4.6,5.28-5.95,2.01-1.35,4.15-2.05,6.43-2.05,2.75,0,5.23.96,7.38,2.8,2.18,1.88,3.84,4.19,4.98,6.9,1.14,2.75,1.74,5.32,1.74,7.77,0,1.35-.3,2.49-.87,3.55-.53,1.01-1.22,1.52-2.01,1.52-.87,0-1.57-.35-2-1.04-.44-.75-.92-1.97-1.49-3.68-.92-2.87-1.97-5.02-3.19-6.42-1.23-1.4-2.71-2.14-4.51-2.14-2.87,0-5.11,1.83-6.81,5.46-1.7,3.67-2.53,8.87-2.53,15.56,0,4.5.35,8.21,1.13,11.23.75,2.96,1.79,5.2,3.14,6.63,1.4,1.49,2.98,2.24,4.81,2.24,2.01,0,3.71-.84,5.07-2.49,1.4-1.7,2.45-4.1,3.14-7.34.27-1.53.66-2.8,1.1-3.76.44-.92,1.14-1.44,2.1-1.44.83,0,1.52.53,2.09,1.49.62.96.92,2.18.92,3.62ZM797.28,487.86v-45.43c0-2.36.36-4.12.96-5.29.66-1.19,1.49-1.79,2.49-1.79s1.88.6,2.54,1.74c.65,1.17.95,2.98.95,5.34v45.43c0,2.4-.3,4.15-.95,5.33-.66,1.17-1.49,1.79-2.54,1.79s-1.83-.62-2.45-1.79c-.65-1.19-1.01-2.98-1.01-5.33ZM769.19,443.04l7.73,38.66,7.77-38.92c.39-2.06.7-3.5.92-4.28.22-.83.53-1.53,1.01-2.18.48-.62,1.1-.96,1.92-.96.57,0,1.14.26,1.62.78.51.48.92,1.14,1.22,1.97.26.83.39,1.66.39,2.49,0,.56-.04,1.22-.13,1.87-.08.66-.21,1.32-.35,1.97-.13.66-.26,1.31-.39,1.97l-8.3,37.7c-.31,1.4-.62,2.8-.87,4.1-.31,1.28-.66,2.4-1.05,3.41-.39.96-.92,1.79-1.53,2.4-.65.65-1.44.96-2.4.96s-1.7-.31-2.36-.92c-.65-.66-1.17-1.44-1.57-2.45-.39-1.01-.75-2.18-1.01-3.46-.3-1.26-.62-2.66-.92-4.06l-8.13-37.4c-.17-.65-.3-1.31-.44-1.96-.17-.7-.26-1.4-.39-2.15-.09-.78-.13-1.4-.13-1.92,0-1.35.31-2.57.96-3.67.62-1.08,1.44-1.66,2.4-1.66,1.19,0,2.01.6,2.49,1.83.53,1.22,1.01,3.19,1.53,5.85ZM744.15,445.09h-6.38v15.9h6.21c1.66,0,3.05-.27,4.19-.75,1.13-.48,2-1.31,2.62-2.48.62-1.19.87-2.75.87-4.81,0-1.62-.21-3.02-.69-4.24s-1.14-2.14-2.01-2.75c-.83-.57-2.4-.87-4.81-.87ZM740.18,469.34h-2.4v18.52c0,2.45-.3,4.24-.96,5.38-.65,1.17-1.49,1.74-2.49,1.74-1.13,0-1.96-.62-2.57-1.83-.62-1.19-.92-2.98-.92-5.29v-44.39c0-2.48.35-4.32,1.01-5.46.65-1.14,1.74-1.7,3.23-1.7h11.32c1.52,0,2.87.12,3.97.35,1.1.21,2.1.69,2.98,1.35,1.08.78,2.05,1.88,2.87,3.28.84,1.4,1.44,3.05,1.88,4.93.45,1.88.62,3.85.62,5.99,0,4.27-.69,7.73-2.14,10.3-1.44,2.54-3.62,4.37-6.55,5.47,1.22,1.08,2.4,2.71,3.53,4.84,1.1,2.19,2.1,4.46,2.97,6.87.92,2.44,1.57,4.63,2.09,6.59.48,1.92.7,3.28.7,4.03s-.13,1.49-.44,2.23c-.27.78-.66,1.35-1.19,1.79-.48.44-1.04.66-1.7.66-.78,0-1.44-.31-1.97-.92-.53-.66-1.01-1.4-1.35-2.36-.39-.92-.92-2.32-1.58-4.15l-2.8-7.78c-.95-2.87-1.88-5.02-2.66-6.51-.78-1.52-1.57-2.53-2.4-3.1-.78-.53-1.79-.83-3.05-.83ZM721.53,445.35h-15.6v14.16h14.38c1.04,0,1.83.44,2.35,1.22.53.79.79,1.83.79,3.15s-.27,2.35-.75,3.19c-.51.83-1.31,1.22-2.39,1.22h-14.38v16.47h16.13c1.08,0,1.92.39,2.48,1.26.57.83.84,1.97.84,3.41,0,1.35-.27,2.44-.84,3.28-.56.87-1.4,1.31-2.48,1.31h-18.83c-1.49,0-2.57-.57-3.23-1.71-.69-1.13-1.01-2.96-1.01-5.46v-43.38c0-1.66.13-3.05.44-4.1.31-1.05.75-1.83,1.4-2.32.62-.48,1.44-.74,2.4-.74h18.31c1.13,0,1.92.44,2.49,1.26.51.83.78,1.92.78,3.23s-.27,2.49-.78,3.32c-.57.78-1.36,1.22-2.49,1.22ZM693.08,476.72c0,3.46-.53,6.6-1.62,9.4-1.04,2.75-2.62,4.93-4.68,6.51-2.05,1.57-4.5,2.36-7.29,2.36-3.37,0-6.16-1.1-8.39-3.23-1.53-1.53-2.8-3.59-3.76-6.16-1.01-2.58-1.49-5.11-1.49-7.56,0-1.4.31-2.62.87-3.62.62-1.01,1.36-1.49,2.24-1.49.74,0,1.35.35,1.88,1.19.48.74.92,1.91,1.26,3.49.44,1.83.92,3.37,1.44,4.59.48,1.23,1.22,2.27,2.14,3.06.92.78,2.1,1.17,3.62,1.17,2.06,0,3.72-.78,4.99-2.4,1.31-1.61,1.92-3.62,1.92-6.03,0-1.92-.31-3.49-1.01-4.68-.7-1.17-1.62-2.09-2.71-2.75-1.1-.62-2.58-1.26-4.42-2-2.45-.96-4.5-2.1-6.16-3.37-1.66-1.31-2.96-3.11-3.93-5.33-1.01-2.23-1.49-5.02-1.49-8.39,0-3.14.53-5.98,1.58-8.43,1-2.44,2.48-4.36,4.45-5.68,1.92-1.35,4.24-2,6.86-2,2.1,0,3.89.44,5.47,1.31,1.52.92,2.8,2.06,3.79,3.53,1.01,1.44,1.76,2.98,2.24,4.55.44,1.61.69,3.19.69,4.71,0,1.36-.3,2.63-.87,3.76-.57,1.1-1.31,1.67-2.18,1.67-.79,0-1.4-.35-1.83-1.01-.4-.66-.84-1.74-1.32-3.28-.65-2.18-1.4-3.89-2.27-5.11-.87-1.22-2.27-1.83-4.19-1.83-1.79,0-3.23.66-4.32,2.01-1.1,1.31-1.67,2.87-1.67,4.75,0,1.19.18,2.15.57,3.02.35.83.87,1.53,1.53,2.14.65.62,1.31,1.1,2,1.44.66.31,1.76.83,3.32,1.49,1.92.74,3.67,1.58,5.25,2.54,1.53.87,2.89,2,3.97,3.31,1.1,1.32,1.97,2.98,2.58,4.99.62,2.01.92,4.45.92,7.38Z"/>
  <path class="cls-1" d="M899.21,477.82h-7.39c-1.13,0-1.96-.44-2.53-1.32-.62-.87-.87-2-.87-3.4s.26-2.58.83-3.46c.57-.87,1.44-1.35,2.57-1.35h7.39c1.17,0,2,.48,2.57,1.35.57.87.87,2.01.87,3.46s-.3,2.53-.87,3.4c-.53.88-1.4,1.32-2.57,1.32Z"/>
  <path class="cls-2" d="M1190.88,446.01h-7.61v41.85c0,2.4-.3,4.19-.96,5.38-.62,1.17-1.44,1.74-2.49,1.74-1,0-1.83-.62-2.48-1.79-.66-1.19-.96-2.93-.96-5.33v-41.85h-7.61c-1.17,0-2.05-.44-2.62-1.31-.57-.92-.87-2.06-.87-3.55s.3-2.66.92-3.53c.57-.87,1.44-1.31,2.57-1.31h22.11c1.17,0,2.05.48,2.66,1.35.57.92.87,2.05.87,3.49s-.3,2.63-.92,3.55c-.57.87-1.44,1.31-2.62,1.31ZM1141.29,442.39l13.37,33.99v-34.35c0-2.23.27-3.88.84-4.98.56-1.13,1.35-1.7,2.32-1.7s1.74.57,2.32,1.66c.6,1.14.87,2.8.87,5.02v45.35c0,5.07-1.23,7.61-3.71,7.61-.62,0-1.19-.18-1.7-.48-.48-.27-.96-.75-1.41-1.4-.44-.66-.83-1.44-1.17-2.32-.39-.87-.78-1.79-1.14-2.71l-13.02-33.55v33.77c0,2.18-.3,3.85-.92,4.98-.6,1.14-1.4,1.71-2.32,1.71-1.01,0-1.79-.57-2.36-1.71-.6-1.13-.92-2.8-.92-4.98v-44.47c0-1.88.13-3.37.4-4.46.3-1.17.78-2.14,1.48-2.89.66-.74,1.4-1.13,2.19-1.13.65,0,1.17.17,1.61.53.44.35.83.78,1.19,1.4.35.56.65,1.31,1,2.23.36.92.75,1.88,1.1,2.89ZM1122.9,445.35h-15.65v14.16h14.42c1.05,0,1.83.44,2.36,1.22.53.79.79,1.83.79,3.15s-.27,2.35-.79,3.19c-.48.83-1.26,1.22-2.36,1.22h-14.42v16.47h16.16c1.1,0,1.92.39,2.49,1.26.57.83.83,1.97.83,3.41,0,1.35-.26,2.44-.83,3.28-.57.87-1.4,1.31-2.49,1.31h-18.82c-1.53,0-2.58-.57-3.23-1.71-.7-1.13-1.01-2.96-1.01-5.46v-43.38c0-1.66.13-3.05.44-4.1.3-1.05.74-1.83,1.4-2.32.62-.48,1.44-.74,2.4-.74h18.31c1.13,0,1.92.44,2.48,1.26.53.83.79,1.92.79,3.23s-.27,2.49-.79,3.32c-.56.78-1.35,1.22-2.48,1.22ZM1072.05,485.33l-5.47-36.75v39.81c0,2.18-.3,3.85-.87,4.93-.6,1.1-1.35,1.67-2.32,1.67s-1.7-.57-2.32-1.67c-.56-1.08-.87-2.71-.87-4.93v-45.66c0-2.49.39-4.19,1.19-5.07.78-.87,1.83-1.35,3.14-1.35h2.14c1.31,0,2.24.21,2.8.6.62.4,1.05,1.1,1.31,2.15.27,1.01.62,2.66.96,4.98l4.99,31.59,4.98-31.59c.35-2.32.66-3.97.96-4.98.26-1.05.69-1.74,1.26-2.15.57-.39,1.53-.6,2.84-.6h2.15c1.31,0,2.36.48,3.14,1.35.78.87,1.17,2.57,1.17,5.07v45.66c0,2.18-.3,3.85-.92,4.93-.57,1.1-1.35,1.67-2.32,1.67s-1.66-.57-2.27-1.67c-.57-1.08-.87-2.75-.87-4.93v-39.81l-5.5,36.75c-.35,2.35-.66,4.1-.87,5.23-.22,1.1-.66,2.1-1.23,3.02-.6.92-1.49,1.4-2.53,1.4-.84,0-1.53-.31-2.06-.87-.57-.62-1.01-1.35-1.31-2.27-.3-.92-.57-1.92-.74-3.06-.18-1.1-.36-2.27-.57-3.44ZM1051.17,445.35h-15.65v14.16h14.37c1.1,0,1.88.44,2.4,1.22.53.79.75,1.83.75,3.15s-.22,2.35-.75,3.19c-.53.83-1.31,1.22-2.4,1.22h-14.37v16.47h16.16c1.1,0,1.92.39,2.45,1.26.57.83.83,1.97.83,3.41,0,1.35-.26,2.44-.83,3.28-.53.87-1.35,1.31-2.45,1.31h-18.87c-1.49,0-2.58-.57-3.23-1.71-.66-1.13-1.01-2.96-1.01-5.46v-43.38c0-1.66.18-3.05.44-4.1.3-1.05.78-1.83,1.4-2.32.66-.48,1.44-.74,2.4-.74h18.35c1.08,0,1.91.44,2.44,1.26.53.83.79,1.92.79,3.23s-.27,2.49-.79,3.32c-.53.78-1.35,1.22-2.44,1.22ZM1000.75,443.04l7.73,38.66,7.77-38.92c.45-2.06.75-3.5.92-4.28.22-.83.57-1.53,1.01-2.18.48-.62,1.14-.96,1.92-.96.57,0,1.14.26,1.67.78.48.48.87,1.14,1.17,1.97.27.83.44,1.66.44,2.49,0,.56-.04,1.22-.17,1.87-.09.66-.18,1.32-.31,1.97-.17.66-.3,1.31-.44,1.97l-8.3,37.7c-.3,1.4-.57,2.8-.87,4.1-.3,1.28-.66,2.4-1.05,3.41-.35.96-.87,1.79-1.53,2.4-.65.65-1.44.96-2.36.96s-1.74-.31-2.39-.92c-.62-.66-1.14-1.44-1.53-2.45-.39-1.01-.75-2.18-1.05-3.46-.3-1.26-.62-2.66-.87-4.06l-8.16-37.4c-.13-.65-.27-1.31-.45-1.96-.12-.7-.26-1.4-.35-2.15-.12-.78-.17-1.4-.17-1.92,0-1.35.35-2.57.96-3.67.65-1.08,1.43-1.66,2.39-1.66,1.19,0,2.01.6,2.54,1.83.48,1.22.96,3.19,1.49,5.85ZM983.93,465.01c0-4.24-.39-7.91-1.19-11.01-.83-3.06-2-5.42-3.49-6.99-1.49-1.58-3.23-2.4-5.16-2.4-1.4,0-2.66.48-3.85,1.31-1.17.92-2.18,2.18-3.05,3.85-.83,1.7-1.49,3.85-2.01,6.46-.48,2.62-.69,5.55-.69,8.78s.21,6.25.69,8.91c.53,2.62,1.22,4.85,2.1,6.6.87,1.7,1.91,3.01,3.05,3.88,1.17.88,2.45,1.32,3.85,1.32,1.79,0,3.4-.75,4.89-2.27,1.49-1.49,2.67-3.8,3.55-6.91.87-3.1,1.31-6.99,1.31-11.53ZM974.09,435.35c3.53,0,6.6,1.22,9.13,3.67,2.54,2.4,4.46,5.85,5.77,10.31,1.31,4.5,1.97,9.74,1.97,15.77,0,4.45-.35,8.52-1.05,12.15-.74,3.62-1.79,6.81-3.23,9.47-1.44,2.67-3.19,4.72-5.29,6.12-2.09,1.44-4.45,2.15-7.16,2.15s-5.07-.75-7.21-2.19c-2.09-1.43-3.85-3.53-5.29-6.15-1.4-2.67-2.48-5.82-3.23-9.57-.69-3.71-1.04-7.73-1.04-12.06s.35-8.48,1.13-12.19c.75-3.71,1.83-6.86,3.28-9.43,1.4-2.63,3.14-4.6,5.2-5.95,2.06-1.4,4.42-2.09,7.04-2.09ZM930.71,485.33l-5.46-36.75v39.81c0,2.18-.31,3.85-.87,4.93-.62,1.1-1.35,1.67-2.32,1.67s-1.71-.57-2.32-1.67c-.57-1.08-.88-2.71-.88-4.93v-45.66c0-2.49.4-4.19,1.19-5.07.78-.87,1.83-1.35,3.14-1.35h2.15c1.31,0,2.23.21,2.8.6.6.4,1.04,1.1,1.31,2.15.26,1.01.6,2.66.96,4.98l4.98,31.59,4.98-31.59c.36-2.32.66-3.97.96-4.98.27-1.05.7-1.74,1.28-2.15.6-.39,1.52-.6,2.83-.6h2.15c1.31,0,2.36.48,3.14,1.35.78.87,1.19,2.57,1.19,5.07v45.66c0,2.18-.31,3.85-.88,4.93-.6,1.1-1.4,1.67-2.35,1.67s-1.67-.57-2.28-1.67c-.56-1.08-.87-2.75-.87-4.93v-39.81l-5.5,36.75c-.35,2.35-.66,4.1-.87,5.23-.22,1.1-.62,2.1-1.22,3.02-.62.92-1.49,1.4-2.54,1.4-.83,0-1.49-.31-2.06-.87-.56-.62-1-1.35-1.31-2.27-.3-.92-.57-1.92-.74-3.06-.18-1.1-.35-2.27-.57-3.44Z"/>
  <path class="cls-2" d="M1396.84,476.72c0,3.46-.53,6.6-1.62,9.4-1.04,2.75-2.62,4.93-4.68,6.51-2.05,1.57-4.5,2.36-7.29,2.36-3.41,0-6.16-1.1-8.39-3.23-1.53-1.53-2.8-3.59-3.76-6.16-1.01-2.58-1.49-5.11-1.49-7.56,0-1.4.31-2.62.87-3.62.62-1.01,1.35-1.49,2.24-1.49.74,0,1.35.35,1.88,1.19.47.74.92,1.91,1.26,3.49.44,1.83.92,3.37,1.44,4.59.48,1.23,1.22,2.27,2.14,3.06.92.78,2.1,1.17,3.62,1.17,2.06,0,3.71-.78,4.99-2.4,1.31-1.61,1.92-3.62,1.92-6.03,0-1.92-.31-3.49-1.01-4.68-.7-1.17-1.62-2.09-2.72-2.75-1.08-.62-2.57-1.26-4.41-2-2.45-.96-4.5-2.1-6.16-3.37-1.66-1.31-2.96-3.11-3.93-5.33-1.01-2.23-1.49-5.02-1.49-8.39,0-3.14.53-5.98,1.53-8.43,1.04-2.44,2.53-4.36,4.5-5.68,1.92-1.35,4.24-2,6.86-2,2.1,0,3.89.44,5.46,1.31,1.53.92,2.8,2.06,3.8,3.53,1.01,1.44,1.76,2.98,2.23,4.55.45,1.61.7,3.19.7,4.71,0,1.36-.3,2.63-.87,3.76-.62,1.1-1.31,1.67-2.18,1.67-.79,0-1.4-.35-1.83-1.01-.4-.66-.84-1.74-1.32-3.28-.65-2.18-1.4-3.89-2.27-5.11s-2.27-1.83-4.19-1.83c-1.79,0-3.23.66-4.33,2.01-1.08,1.31-1.66,2.87-1.66,4.75,0,1.19.18,2.15.57,3.02.35.83.87,1.53,1.53,2.14.65.62,1.31,1.1,2,1.44.66.31,1.74.83,3.32,1.49,1.92.74,3.67,1.58,5.25,2.54,1.53.87,2.89,2,3.97,3.31,1.1,1.32,1.97,2.98,2.58,4.99.6,2.01.92,4.45.92,7.38ZM1361.45,445.35h-15.6v14.16h14.37c1.05,0,1.83.44,2.36,1.22.53.79.79,1.83.79,3.15s-.27,2.35-.75,3.19c-.53.83-1.31,1.22-2.4,1.22h-14.37v16.47h16.17c1.08,0,1.87.39,2.44,1.26.57.83.84,1.97.84,3.41,0,1.35-.27,2.44-.84,3.28-.57.87-1.35,1.31-2.44,1.31h-18.88c-1.49,0-2.57-.57-3.23-1.71-.66-1.13-1.01-2.96-1.01-5.46v-43.38c0-1.66.13-3.05.44-4.1.31-1.05.75-1.83,1.4-2.32.62-.48,1.44-.74,2.4-.74h18.31c1.13,0,1.97.44,2.48,1.26.53.83.79,1.92.79,3.23s-.27,2.49-.79,3.32c-.51.78-1.35,1.22-2.48,1.22ZM1317.79,445.09h-6.42v15.9h6.21c1.66,0,3.05-.27,4.24-.75,1.13-.48,1.97-1.31,2.57-2.48.62-1.19.92-2.75.92-4.81,0-1.62-.26-3.02-.74-4.24s-1.14-2.14-2.01-2.75c-.78-.57-2.4-.87-4.76-.87ZM1313.82,469.34h-2.45v18.52c0,2.45-.3,4.24-.96,5.38-.6,1.17-1.49,1.74-2.48,1.74-1.1,0-1.97-.62-2.58-1.83-.62-1.19-.92-2.98-.92-5.29v-44.39c0-2.48.35-4.32,1.01-5.46.69-1.14,1.74-1.7,3.28-1.7h11.27c1.52,0,2.89.12,3.97.35,1.14.21,2.1.69,3.02,1.35,1.04.78,2,1.88,2.84,3.28.83,1.4,1.44,3.05,1.88,4.93s.65,3.85.65,5.99c0,4.27-.74,7.73-2.18,10.3-1.44,2.54-3.62,4.37-6.55,5.47,1.22,1.08,2.4,2.71,3.53,4.84,1.14,2.19,2.15,4.46,3.02,6.87.87,2.44,1.53,4.63,2.05,6.59.48,1.92.75,3.28.75,4.03s-.18,1.49-.44,2.23c-.31.78-.7,1.35-1.19,1.79-.53.44-1.08.66-1.74.66-.78,0-1.44-.31-1.97-.92-.53-.66-.96-1.4-1.35-2.36-.39-.92-.92-2.32-1.57-4.15l-2.76-7.78c-1-2.87-1.91-5.02-2.66-6.51-.83-1.52-1.61-2.53-2.4-3.1-.83-.53-1.83-.83-3.05-.83ZM1278.26,471.43h10.22l-5.16-23.77-5.07,23.77ZM1292.02,487.47l-1.67-7.26h-13.94l-1.61,7.39c-.66,2.87-1.19,4.84-1.62,5.85-.48,1.01-1.22,1.53-2.23,1.53-.87,0-1.67-.53-2.32-1.62-.66-1.08-1.01-2.32-1.01-3.67,0-.78.09-1.61.22-2.45.17-.83.44-1.96.78-3.49l8.74-37.45c.27-1.05.57-2.36.92-3.85.35-1.52.75-2.75,1.14-3.75.39-1.01.92-1.8,1.57-2.4.62-.66,1.44-.96,2.36-.96,1.01,0,1.79.3,2.45.96.66.6,1.14,1.4,1.58,2.36.39.96.69,2,1,3.14.27,1.1.62,2.57,1.01,4.45l8.96,37.19c.7,2.83,1.05,4.89,1.05,6.15,0,1.35-.3,2.58-1.01,3.71-.66,1.1-1.44,1.67-2.36,1.67-.57,0-1.05-.18-1.44-.53-.35-.3-.69-.74-.96-1.31-.26-.57-.53-1.44-.83-2.58-.3-1.17-.57-2.23-.78-3.1ZM1253.96,445.09h-4.68v17.65h4.68c1.67,0,3.02-.3,4.12-.87,1.08-.57,1.96-1.49,2.53-2.84.57-1.26.87-3.02.87-5.16,0-2.54-.48-4.59-1.35-6.21-1.01-1.7-3.05-2.57-6.16-2.57ZM1255.68,471.52h-6.39v16.34c0,2.32-.3,4.1-.96,5.29-.65,1.22-1.48,1.83-2.48,1.83s-1.88-.62-2.49-1.79c-.65-1.19-.96-2.98-.96-5.25v-44.48c0-2.53.35-4.41,1.05-5.5.69-1.1,1.79-1.66,3.32-1.66h8.91c2.62,0,4.63.35,6.07,1.04,1.4.66,2.62,1.76,3.62,3.24,1.05,1.57,1.79,3.4,2.32,5.59.57,2.23.83,4.71.83,7.46,0,5.86-1.08,10.31-3.23,13.33-2.14,3.05-5.37,4.54-9.61,4.54ZM1236.49,476.72c0,3.46-.53,6.6-1.62,9.4-1.04,2.75-2.62,4.93-4.68,6.51-2.05,1.57-4.5,2.36-7.29,2.36-3.41,0-6.16-1.1-8.39-3.23-1.53-1.53-2.8-3.59-3.76-6.16-1.01-2.58-1.49-5.11-1.49-7.56,0-1.4.31-2.62.87-3.62.62-1.01,1.36-1.49,2.24-1.49.74,0,1.35.35,1.88,1.19.48.74.92,1.91,1.26,3.49.44,1.83.92,3.37,1.44,4.59.48,1.23,1.22,2.27,2.14,3.06.92.78,2.1,1.17,3.62,1.17,2.01,0,3.71-.78,4.99-2.4,1.31-1.61,1.92-3.62,1.92-6.03,0-1.92-.31-3.49-1.01-4.68-.7-1.17-1.62-2.09-2.71-2.75-1.1-.62-2.58-1.26-4.42-2-2.45-.96-4.5-2.1-6.16-3.37-1.66-1.31-2.96-3.11-3.93-5.33-1.01-2.23-1.49-5.02-1.49-8.39,0-3.14.53-5.98,1.53-8.43,1.04-2.44,2.53-4.36,4.5-5.68,1.92-1.35,4.24-2,6.86-2,2.1,0,3.89.44,5.47,1.31,1.52.92,2.8,2.06,3.79,3.53,1.01,1.44,1.76,2.98,2.24,4.55.44,1.61.69,3.19.69,4.71,0,1.36-.3,2.63-.87,3.76-.62,1.1-1.31,1.67-2.18,1.67-.79,0-1.4-.35-1.83-1.01-.4-.66-.84-1.74-1.32-3.28-.65-2.18-1.4-3.89-2.27-5.11-.87-1.22-2.27-1.83-4.19-1.83-1.79,0-3.23.66-4.32,2.01-1.1,1.31-1.67,2.87-1.67,4.75,0,1.19.18,2.15.57,3.02.35.83.87,1.53,1.53,2.14.65.62,1.31,1.1,2,1.44.66.31,1.76.83,3.28,1.49,1.97.74,3.71,1.58,5.29,2.54,1.53.87,2.89,2,3.97,3.31,1.1,1.32,1.97,2.98,2.58,4.99.62,2.01.92,4.45.92,7.38Z"/>
</svg>